# This file uses centimeters as units for non-parametric coordinates.

mtllib ShowroomNorthWall.mtl
g default
v -208.912992 525.066995 -527.812003
v -72.701597 555.807018 -527.812003
v -116.364002 549.183988 -527.812003
v -30.146599 559.327983 -527.812003
v 11.736000 559.965991 -527.812003
v 53.342903 557.821988 -527.812003
v -161.624002 539.100980 -527.812003
v -253.605008 508.515977 -527.812003
v 95.049697 552.894019 -527.812003
v 137.224996 545.082998 -527.812003
v 180.244994 534.184980 -527.812003
v 224.505997 519.883012 -527.812003
v 270.437002 501.729011 -527.812003
v -300.573993 487.680005 -527.812003
v 301.208997 487.680005 -527.812003
v -253.605008 508.515977 -537.972020
v -300.573993 487.680005 -537.972020
v -208.912992 525.066995 -537.972020
v -161.624002 539.100980 -537.972020
v -116.364002 549.183988 -537.972020
v -72.701597 555.807018 -537.972020
v -30.146599 559.327983 -537.972020
v 11.736000 559.965991 -537.972020
v 53.342903 557.821988 -537.972020
v 95.049697 552.894019 -537.972020
v 137.224996 545.082998 -537.972020
v 180.244994 534.184980 -537.972020
v 224.505997 519.883012 -537.972020
v 270.437002 501.729011 -537.972020
v 301.208997 487.680005 -537.972020
v -299.720001 487.680005 -537.972020
v 299.720001 487.680005 -537.972020
v 299.720001 487.680005 -528.319978
v -299.720001 487.680005 -528.319978
v -299.720001 -0.000001 -528.319978
v 299.720001 -0.000001 -528.319978
v -299.720001 -0.000001 -538.479995
v -299.720001 487.680005 -538.479995
v 299.720001 -0.000001 -538.479995
v 299.720001 487.680005 -538.479995
vt 0.487841 0.905493
vt 0.487841 0.501823
vt 0.495831 0.501823
vt 0.496253 0.905493
vt 0.496253 0.501823
vt 0.482239 0.501823
vt 0.482239 0.905499
vt 0.481817 0.905499
vt 0.473831 0.501823
vt 0.473831 0.905499
vt 0.032766 0.424248
vt 0.058210 0.311500
vt 0.052730 0.347643
vt 0.061126 0.276276
vt 0.044384 0.385106
vt 0.061654 0.241608
vt 0.059879 0.207167
vt 0.019067 0.461242
vt 0.055799 0.172646
vt 0.049333 0.137736
vt 0.040313 0.102126
vt 0.028475 0.065491
vt 0.013449 0.027469
vt 0.001819 0.500120
vt 0.001819 0.001998
vt 0.110992 0.424254
vt 0.099377 0.385110
vt 0.091029 0.347647
vt 0.085548 0.311502
vt 0.082632 0.276277
vt 0.082104 0.241611
vt 0.083879 0.207170
vt 0.124691 0.461248
vt 0.141936 0.499418
vt 0.087959 0.172646
vt 0.141936 0.500125
vt 0.094425 0.137742
vt 0.103445 0.102126
vt 0.115280 0.065494
vt 0.130309 0.027472
vt 0.141936 0.003233
vt 0.141936 0.001998
vt 0.565883 0.498177
vt 0.162210 0.498177
vt 0.162210 0.001998
vt 0.565883 0.001998
vt 0.507882 0.998008
vt 0.507882 0.501823
vt 0.911558 0.501823
vt 0.911558 0.998008
vt 0.067863 0.461242
vt 0.076271 0.461242
vt 0.076271 0.500122
vt 0.067863 0.424248
vt 0.067863 0.500122
vt 0.076271 0.424248
vt 0.076271 0.385107
vt 0.067863 0.385107
vt 0.067863 0.347644
vt 0.076271 0.347644
vt 0.067863 0.311499
vt 0.076271 0.311499
vt 0.067863 0.276274
vt 0.076271 0.276274
vt 0.076271 0.241608
vt 0.067863 0.241608
vt 0.067863 0.207167
vt 0.076271 0.207167
vt 0.067863 0.172646
vt 0.076271 0.172646
vt 0.067863 0.137736
vt 0.076271 0.137736
vt 0.067863 0.102126
vt 0.076271 0.102126
vt 0.067863 0.065491
vt 0.076271 0.065491
vt 0.067863 0.027469
vt 0.076271 0.027469
vt 0.076271 0.001998
vt 0.067863 0.001998
vt 0.147969 0.001992
vt 0.156389 0.001992
vt 0.155961 0.003227
vt 0.156389 0.500113
vt 0.147969 0.003227
vt 0.155961 0.499412
vt 0.147969 0.500113
vt 0.147969 0.499412
vt 0.580048 0.001992
vt 0.580048 0.498177
vt 0.571639 0.498177
vt 0.571639 0.001992
vt 0.502278 0.998005
vt 0.501857 0.998005
vt 0.501857 0.501823
vt 0.502278 0.501823
vn 0.000000 0.000000 1.000000
vn 0.000000 0.000000 1.000000
vn 0.000000 0.000000 1.000000
vn 0.000000 0.000000 1.000000
vn 0.000000 0.000000 1.000000
vn 0.000000 0.000000 1.000000
vn 0.000000 0.000000 1.000000
vn 0.000000 0.000000 1.000000
vn 0.000000 0.000000 1.000000
vn 0.000000 0.000000 1.000000
vn 0.000000 0.000000 1.000000
vn 0.000000 0.000000 1.000000
vn 0.000000 0.000000 1.000000
vn 0.000000 0.000000 1.000000
vn 0.000000 0.000000 1.000000
vn 0.000000 0.000000 1.000000
vn 0.000000 0.000000 1.000000
vn 0.000000 0.000000 1.000000
vn 0.000000 0.000000 1.000000
vn 0.000000 0.000000 1.000000
vn 0.000000 0.000000 1.000000
vn 0.000000 0.000000 1.000000
vn 0.000000 0.000000 1.000000
vn 0.000000 0.000000 1.000000
vn 0.000000 0.000000 1.000000
vn 0.000000 0.000000 1.000000
vn 0.000000 0.000000 1.000000
vn 0.000000 0.000000 1.000000
vn 0.000000 0.000000 1.000000
vn 0.000000 0.000000 1.000000
vn 0.000000 0.000000 1.000000
vn 0.000000 0.000000 1.000000
vn 0.000000 0.000000 1.000000
vn 0.000000 0.000000 1.000000
vn 0.000000 0.000000 1.000000
vn 0.000000 0.000000 1.000000
vn 0.000000 0.000000 1.000000
vn 0.000000 0.000000 1.000000
vn 0.000000 0.000000 1.000000
vn -0.376226 0.926528 0.000000
vn -0.376226 0.926528 0.000000
vn -0.433588 0.901111 0.000000
vn -0.317301 0.948325 0.000000
vn -0.317301 0.948325 0.000000
vn -0.376226 0.926528 0.000000
vn -0.250698 0.968065 0.000000
vn -0.317301 0.948325 0.000000
vn -0.317301 0.948325 0.000000
vn -0.183425 0.983034 0.000000
vn -0.183425 0.983034 0.000000
vn -0.250698 0.968065 0.000000
vn -0.115980 0.993252 0.000000
vn -0.115980 0.993252 0.000000
vn -0.183425 0.983034 0.000000
vn -0.048659 0.998815 0.000000
vn -0.048659 0.998815 0.000000
vn -0.115980 0.993252 0.000000
vn 0.018257 0.999833 0.000000
vn -0.048659 0.998815 0.000000
vn -0.048659 0.998815 0.000000
vn 0.084492 0.996424 0.000000
vn 0.084492 0.996424 0.000000
vn 0.018257 0.999833 0.000000
vn 0.149782 0.988719 0.000000
vn 0.149782 0.988719 0.000000
vn 0.084492 0.996424 0.000000
vn 0.213870 0.976862 0.000000
vn 0.213870 0.976862 0.000000
vn 0.149782 0.988719 0.000000
vn 0.276513 0.961010 0.000000
vn 0.276513 0.961010 0.000000
vn 0.213870 0.976862 0.000000
vn 0.337478 0.941333 0.000000
vn 0.337478 0.941333 0.000000
vn 0.276513 0.961010 0.000000
vn 0.396547 0.918015 0.000000
vn 0.396547 0.918015 0.000000
vn 0.337478 0.941333 0.000000
vn 0.433588 0.901111 0.000000
vn 0.396547 0.918015 0.000000
vn 0.396547 0.918015 0.000000
vn 0.396547 0.918015 0.000000
vn 0.433588 0.901111 0.000000
vn 0.433588 0.901111 0.000000
vn 0.337478 0.941333 0.000000
vn 0.337478 0.941333 0.000000
vn 0.396547 0.918015 0.000000
vn 0.276513 0.961010 0.000000
vn 0.276513 0.961010 0.000000
vn 0.337478 0.941333 0.000000
vn 0.213870 0.976862 0.000000
vn 0.213870 0.976862 0.000000
vn 0.276513 0.961010 0.000000
vn 0.149782 0.988719 0.000000
vn 0.149782 0.988719 0.000000
vn 0.213870 0.976862 0.000000
vn 0.084492 0.996424 0.000000
vn 0.084492 0.996424 0.000000
vn 0.149782 0.988719 0.000000
vn 0.018257 0.999833 0.000000
vn 0.018257 0.999833 0.000000
vn 0.084492 0.996424 0.000000
vn -0.048659 0.998815 0.000000
vn 0.018257 0.999833 0.000000
vn 0.018257 0.999833 0.000000
vn -0.115980 0.993252 0.000000
vn -0.115980 0.993252 0.000000
vn -0.048659 0.998815 0.000000
vn -0.183425 0.983034 0.000000
vn -0.183425 0.983034 0.000000
vn -0.115980 0.993252 0.000000
vn -0.250698 0.968065 0.000000
vn -0.250698 0.968065 0.000000
vn -0.183425 0.983034 0.000000
vn -0.317301 0.948325 0.000000
vn -0.250698 0.968065 0.000000
vn -0.250698 0.968065 0.000000
vn -0.376226 0.926528 0.000000
vn -0.376226 0.926528 0.000000
vn -0.317301 0.948325 0.000000
vn -0.433588 0.901111 0.000000
vn -0.433588 0.901111 0.000000
vn -0.376226 0.926528 0.000000
vn 0.000000 0.000000 -1.000000
vn 0.000000 0.000000 -1.000000
vn 0.000000 0.000000 -1.000000
vn 0.000000 0.000000 -1.000000
vn 0.000000 0.000000 -1.000000
vn 0.000000 0.000000 -1.000000
vn 0.000000 0.000000 -1.000000
vn 0.000000 0.000000 -1.000000
vn 0.000000 0.000000 -1.000000
vn 0.000000 0.000000 -1.000000
vn 0.000000 0.000000 -1.000000
vn 0.000000 0.000000 -1.000000
vn 0.000000 0.000000 -1.000000
vn 0.000000 0.000000 -1.000000
vn 0.000000 0.000000 -1.000000
vn 0.000000 0.000000 -1.000000
vn 0.000000 0.000000 -1.000000
vn 0.000000 0.000000 -1.000000
vn 0.000000 0.000000 -1.000000
vn 0.000000 0.000000 -1.000000
vn 0.000000 0.000000 -1.000000
vn 0.000000 0.000000 -1.000000
vn 0.000000 0.000000 -1.000000
vn 0.000000 0.000000 -1.000000
vn 0.000000 0.000000 -1.000000
vn 0.000000 0.000000 -1.000000
vn 0.000000 0.000000 -1.000000
vn 0.000000 0.000000 -1.000000
vn 0.000000 0.000000 -1.000000
vn 0.000000 0.000000 -1.000000
vn 0.000000 0.000000 -1.000000
vn 0.000000 0.000000 -1.000000
vn 0.000000 0.000000 -1.000000
vn 0.000000 0.000000 -1.000000
vn 0.000000 0.000000 -1.000000
vn 0.000000 0.000000 -1.000000
vn 0.000000 0.000000 -1.000000
vn 0.000000 0.000000 -1.000000
vn 0.000000 0.000000 -1.000000
vn 0.000000 0.000000 -1.000000
vn 0.000000 0.000000 -1.000000
vn 0.000000 0.000000 -1.000000
vn 0.000000 0.000000 -1.000000
vn 0.000000 0.000000 -1.000000
vn 0.000000 0.000000 -1.000000
vn 0.000000 -1.000000 0.000000
vn 0.000000 -1.000000 0.000000
vn 0.000000 -1.000000 0.000000
vn 0.000000 -1.000000 0.000000
vn 0.000000 -1.000000 0.000000
vn 0.000000 -1.000000 0.000000
vn 0.000000 -1.000000 0.000000
vn 0.000000 -1.000000 0.000000
vn 0.000000 -1.000000 0.000000
vn 0.000000 -1.000000 0.000000
vn 0.000000 -1.000000 0.000000
vn 0.000000 -1.000000 0.000000
vn 0.000000 -1.000000 0.000000
vn 0.000000 -1.000000 0.000000
vn 0.000000 -1.000000 0.000000
vn 0.000000 -1.000000 0.000000
vn 0.000000 -1.000000 0.000000
vn 0.000000 -1.000000 0.000000
vn 0.000000 0.000000 1.000000
vn 0.000000 0.000000 1.000000
vn 0.000000 0.000000 1.000000
vn 0.000000 0.000000 1.000000
vn 0.000000 0.000000 1.000000
vn 0.000000 0.000000 1.000000
vn -1.000000 0.000000 0.000000
vn -1.000000 0.000000 0.000000
vn -1.000000 0.000000 0.000000
vn -1.000000 0.000000 0.000000
vn -1.000000 0.000000 0.000000
vn -1.000000 0.000000 0.000000
vn -1.000000 0.000000 0.000000
vn -1.000000 0.000000 0.000000
vn -1.000000 0.000000 0.000000
vn 1.000000 0.000000 -0.000000
vn 1.000000 0.000000 -0.000000
vn 1.000000 0.000000 -0.000000
vn 1.000000 0.000000 -0.000000
vn 1.000000 0.000000 -0.000000
vn 1.000000 0.000000 -0.000000
vn 1.000000 0.000000 -0.000000
vn 1.000000 0.000000 -0.000000
vn 1.000000 0.000000 -0.000000
vn 0.000000 -1.000000 0.000000
vn 0.000000 -1.000000 0.000000
vn 0.000000 -1.000000 0.000000
vn 0.000000 -1.000000 0.000000
vn 0.000000 -1.000000 0.000000
vn 0.000000 -1.000000 0.000000
vn -0.000000 0.000000 -1.000000
vn -0.000000 0.000000 -1.000000
vn -0.000000 0.000000 -1.000000
vn -0.000000 0.000000 -1.000000
vn -0.000000 0.000000 -1.000000
vn -0.000000 0.000000 -1.000000
vn 0.000000 1.000000 0.000000
vn 0.000000 1.000000 0.000000
vn 0.000000 1.000000 0.000000
vn 0.000000 1.000000 0.000000
vn 0.000000 1.000000 0.000000
vn 0.000000 1.000000 0.000000
s off
g Showroom:NorthWall ShowroomGrp
usemtl initialShadingGroup
f 1/11/1 2/12/2 3/13/3
f 1/11/4 4/14/5 2/12/6
f 1/11/7 5/16/8 4/14/9
f 1/11/10 6/17/11 5/16/12
f 3/13/13 7/15/14 1/11/15
f 8/18/16 9/19/17 6/17/18
f 8/18/19 10/20/20 9/19/21
f 8/18/22 11/21/23 10/20/24
f 8/18/25 12/22/26 11/21/27
f 8/18/28 13/23/29 12/22/30
f 1/11/31 8/18/32 6/17/33
f 14/24/34 15/25/35 13/23/36
f 8/18/37 14/24/38 13/23/39
f 8/51/40 16/52/41 17/53/42
f 1/54/43 18/56/44 16/52/45
f 19/57/46 18/56/47 1/54/48
f 3/59/49 20/60/50 19/57/51
f 2/61/52 21/62/53 20/60/54
f 4/63/55 22/64/56 21/62/57
f 23/65/58 22/64/59 4/63/60
f 6/67/61 24/68/62 23/65/63
f 9/69/64 25/70/65 24/68/66
f 10/71/67 26/72/68 25/70/69
f 11/73/70 27/74/71 26/72/72
f 12/75/73 28/76/74 27/74/75
f 13/77/76 29/78/77 28/76/78
f 30/79/79 29/78/80 13/77/81
f 13/77/82 15/80/83 30/79/84
f 28/76/85 12/75/86 13/77/87
f 27/74/88 11/73/89 12/75/90
f 26/72/91 10/71/92 11/73/93
f 25/70/94 9/69/95 10/71/96
f 24/68/97 6/67/98 9/69/99
f 23/65/100 5/66/101 6/67/102
f 4/63/103 5/66/104 23/65/105
f 21/62/106 2/61/107 4/63/108
f 20/60/109 3/59/110 2/61/111
f 19/57/112 7/58/113 3/59/114
f 1/54/115 7/58/116 19/57/117
f 16/52/118 8/51/119 1/54/120
f 17/53/121 14/55/122 8/51/123
f 18/26/124 19/27/125 20/28/126
f 20/28/127 21/29/128 18/26/129
f 21/29/130 22/30/131 18/26/132
f 22/30/133 23/31/134 18/26/135
f 24/32/136 31/34/137 16/33/138
f 16/33/139 18/26/140 24/32/141
f 23/31/142 24/32/143 18/26/144
f 24/32/145 25/35/146 31/34/147
f 25/35/148 26/37/149 31/34/150
f 31/34/151 28/39/152 29/40/153
f 26/37/154 27/38/155 31/34/156
f 27/38/157 28/39/158 31/34/159
f 29/40/160 30/42/161 32/41/162
f 29/40/163 32/41/164 31/34/165
f 31/34/166 17/36/167 16/33/168
f 30/81/169 15/82/170 33/83/171
f 14/84/172 34/86/173 33/83/174
f 33/83/175 15/82/176 14/84/177
f 17/87/178 31/88/179 34/86/180
f 34/86/181 14/84/182 17/87/183
f 33/83/184 32/85/185 30/81/186
f 34/43/187 35/44/188 36/45/189
f 36/45/190 33/46/191 34/43/192
f 35/1/193 34/2/194 31/3/195
f 31/3/196 37/4/197 35/1/198
f 31/3/199 38/5/200 37/4/201
f 39/6/202 40/7/203 32/8/204
f 32/8/205 36/9/206 39/6/207
f 32/8/208 33/10/209 36/9/210
f 36/89/211 35/90/212 37/91/213
f 37/91/214 39/92/215 36/89/216
f 38/47/217 40/48/218 39/49/219
f 39/49/220 37/50/221 38/47/222
f 38/93/223 31/94/224 32/95/225
f 32/95/226 40/96/227 38/93/228
