# This file uses centimeters as units for non-parametric coordinates.

mtllib ShowroomSouthWall.mtl
g default
v -208.912992 525.066995 526.287986
v -161.624002 539.100980 526.287986
v -116.364002 549.183988 526.287986
v -72.701597 555.807018 526.287986
v -30.146599 559.327983 526.287986
v 11.736000 559.965991 526.287986
v 53.342903 557.821988 526.287986
v -253.605008 508.515977 526.287986
v 95.049697 552.894019 526.287986
v 137.224996 545.082998 526.287986
v 180.244994 534.184980 526.287986
v 224.505997 519.883012 526.287986
v 270.437002 501.729011 526.287986
v -300.573993 487.680005 526.287986
v 301.208997 487.680005 526.287986
v -253.605008 508.515977 536.448003
v -300.573993 487.680005 528.319979
v -208.912992 525.066995 536.448003
v -161.624002 539.100980 536.448003
v -116.364002 549.183988 536.448003
v -72.701597 555.807018 536.448003
v 11.736000 559.965991 536.448003
v 53.342903 557.821988 536.448003
v 95.049697 552.894019 536.448003
v 137.224996 545.082998 536.448003
v 180.244994 534.184980 536.448003
v 224.505997 519.883012 536.448003
v 270.437002 501.729011 536.448003
v 301.208997 487.680005 536.448003
v 301.208997 487.680005 528.319979
v -30.146599 559.327983 536.448003
v -300.573993 487.680005 536.448003
v 299.720001 487.680005 528.319979
v -299.720001 487.680005 528.319979
v 299.720001 -0.000001 528.319979
v -299.720001 -0.000001 528.319979
v 309.879994 -0.000001 528.319979
v 309.879994 487.680005 528.319979
v -309.879994 -0.000001 528.319979
v -309.879994 487.680005 528.319979
v -309.879994 487.680005 538.479996
v 309.879994 487.680005 538.479996
v -309.879994 -0.000001 538.479996
v 309.879994 -0.000001 538.479996
vt 0.845752 0.516672
vt 0.854129 0.516672
vt 0.854129 0.918747
vt 0.845752 0.918747
vt 0.831677 0.516672
vt 0.840058 0.516672
vt 0.840058 0.918749
vt 0.831677 0.918749
vt 0.879652 0.422574
vt 0.868078 0.383584
vt 0.859770 0.346269
vt 0.854306 0.310270
vt 0.851406 0.275184
vt 0.850877 0.240659
vt 0.852643 0.206353
vt 0.893296 0.459420
vt 0.856706 0.171968
vt 0.863150 0.137193
vt 0.872135 0.101730
vt 0.883928 0.065231
vt 0.898894 0.027368
vt 0.910473 0.498148
vt 0.910473 0.001992
vt 0.898029 0.922432
vt 0.923374 0.810130
vt 0.917914 0.846129
vt 0.926277 0.775046
vt 0.909602 0.883444
vt 0.926804 0.740514
vt 0.925034 0.706211
vt 0.884384 0.959278
vt 0.920972 0.671826
vt 0.914530 0.637051
vt 0.905545 0.601585
vt 0.893756 0.565093
vt 0.878788 0.527223
vt 0.867206 0.998003
vt 0.867206 0.501853
vt 0.018321 0.010367
vt 0.420398 0.010367
vt 0.420398 0.504587
vt 0.018321 0.009137
vt 0.018321 0.504587
vt 0.420398 0.001992
vt 0.018321 0.505293
vt 0.018321 0.001992
vt 0.420398 0.512962
vt 0.018321 0.512962
vt 0.843913 0.001995
vt 0.843913 0.512965
vt 0.441839 0.512965
vt 0.441839 0.001995
vt 0.003527 0.466567
vt 0.011902 0.466567
vt 0.010227 0.505292
vt 0.003527 0.429721
vt 0.011902 0.505292
vt 0.003527 0.505292
vt 0.011902 0.429721
vt 0.010227 0.512964
vt 0.003527 0.390732
vt 0.001850 0.512964
vt 0.011902 0.390732
vt 0.001850 0.001994
vt 0.003527 0.353417
vt 0.003527 0.009142
vt 0.011902 0.353417
vt 0.010227 0.001994
vt 0.003527 0.317418
vt 0.010227 0.009142
vt 0.011902 0.317418
vt 0.003527 0.034512
vt 0.011902 0.282334
vt 0.011902 0.034512
vt 0.003527 0.282334
vt 0.011902 0.009142
vt 0.011902 0.072381
vt 0.003527 0.247803
vt 0.003527 0.072381
vt 0.011902 0.247803
vt 0.011902 0.108874
vt 0.003527 0.213500
vt 0.003527 0.108874
vt 0.011902 0.213500
vt 0.011902 0.144340
vt 0.003527 0.179115
vt 0.003527 0.144340
vt 0.011902 0.179115
vt 0.859826 0.998008
vt 0.859826 0.501852
vt 0.861507 0.503082
vt 0.861507 0.501852
vt 0.861507 0.997301
vt 0.861507 0.998008
vt 0.435728 0.512974
vt 0.427358 0.504593
vt 0.427358 0.010374
vt 0.427358 0.512974
vt 0.435728 0.001992
vt 0.427358 0.001992
vn 0.000000 -0.000060 -1.000000
vn 0.000000 -0.000060 -1.000000
vn 0.000000 -0.000060 -1.000000
vn 0.000000 0.000000 -1.000000
vn 0.000000 0.000000 -1.000000
vn 0.000000 0.000000 -1.000000
vn 0.000000 0.000000 -1.000000
vn 0.000000 0.000000 -1.000000
vn 0.000000 0.000000 -1.000000
vn 0.000000 0.000000 -1.000000
vn 0.000000 0.000000 -1.000000
vn 0.000000 0.000000 -1.000000
vn 0.000000 0.000000 -1.000000
vn 0.000000 0.000000 -1.000000
vn 0.000000 0.000000 -1.000000
vn 0.000000 0.000000 -1.000000
vn 0.000000 0.000000 -1.000000
vn 0.000000 0.000000 -1.000000
vn 0.000000 0.000000 -1.000000
vn 0.000000 0.000000 -1.000000
vn 0.000000 0.000000 -1.000000
vn 0.000000 0.000000 -1.000000
vn 0.000000 0.000000 -1.000000
vn 0.000000 0.000000 -1.000000
vn 0.000000 0.000000 -1.000000
vn 0.000000 0.000000 -1.000000
vn 0.000000 0.000000 -1.000000
vn 0.000000 0.000000 -1.000000
vn 0.000000 0.000000 -1.000000
vn 0.000000 0.000000 -1.000000
vn 0.000000 0.000000 -1.000000
vn 0.000000 0.000000 -1.000000
vn 0.000000 0.000000 -1.000000
vn 0.000000 0.000000 -1.000000
vn 0.000000 0.000000 -1.000000
vn 0.000000 0.000000 -1.000000
vn 0.000000 0.000000 -1.000000
vn 0.000000 0.000000 -1.000000
vn 0.000000 0.000000 -1.000000
vn -0.376226 0.926528 0.000000
vn -0.376226 0.926528 0.000000
vn -0.433588 0.901111 0.000000
vn -0.376226 0.926528 0.000000
vn -0.433588 0.901111 0.000000
vn -0.433588 0.901111 0.000000
vn -0.317301 0.948325 0.000000
vn -0.317301 0.948325 0.000000
vn -0.376226 0.926528 0.000000
vn -0.250698 0.968065 0.000000
vn -0.250698 0.968065 0.000000
vn -0.317301 0.948325 0.000000
vn -0.183425 0.983034 0.000000
vn -0.183425 0.983034 0.000000
vn -0.250698 0.968065 0.000000
vn -0.115980 0.993252 0.000000
vn -0.115980 0.993252 0.000000
vn -0.183425 0.983034 0.000000
vn -0.048659 0.998815 0.000000
vn -0.115980 0.993252 0.000000
vn -0.115980 0.993252 0.000000
vn 0.018257 0.999833 0.000000
vn 0.018257 0.999833 0.000000
vn -0.048659 0.998815 0.000000
vn 0.084492 0.996424 0.000000
vn 0.084492 0.996424 0.000000
vn 0.018257 0.999833 0.000000
vn 0.149782 0.988719 0.000000
vn 0.149782 0.988719 0.000000
vn 0.084492 0.996424 0.000000
vn 0.213870 0.976862 0.000000
vn 0.213870 0.976862 0.000000
vn 0.149782 0.988719 0.000000
vn 0.276513 0.961010 0.000000
vn 0.276513 0.961010 0.000000
vn 0.213870 0.976862 0.000000
vn 0.337478 0.941333 0.000000
vn 0.337478 0.941333 0.000000
vn 0.276513 0.961010 0.000000
vn 0.396547 0.918015 0.000000
vn 0.396547 0.918015 0.000000
vn 0.337478 0.941333 0.000000
vn 0.396547 0.918015 0.000000
vn 0.433588 0.901111 0.000000
vn 0.433588 0.901111 0.000000
vn 0.433588 0.901111 0.000000
vn 0.396547 0.918015 0.000000
vn 0.396547 0.918015 0.000000
vn 0.433588 0.901111 0.000000
vn 0.433588 0.901111 0.000000
vn 0.396547 0.918015 0.000000
vn 0.337478 0.941333 0.000000
vn 0.337478 0.941333 0.000000
vn 0.396547 0.918015 0.000000
vn 0.276513 0.961010 0.000000
vn 0.276513 0.961010 0.000000
vn 0.337478 0.941333 0.000000
vn 0.213870 0.976862 0.000000
vn 0.213870 0.976862 0.000000
vn 0.276513 0.961010 0.000000
vn 0.149782 0.988719 0.000000
vn 0.149782 0.988719 0.000000
vn 0.213870 0.976862 0.000000
vn 0.084492 0.996424 0.000000
vn 0.084492 0.996424 0.000000
vn 0.149782 0.988719 0.000000
vn 0.018257 0.999833 0.000000
vn 0.018257 0.999833 0.000000
vn 0.084492 0.996424 0.000000
vn -0.048659 0.998815 0.000000
vn -0.048659 0.998815 0.000000
vn 0.018257 0.999833 0.000000
vn -0.115980 0.993252 0.000000
vn -0.048659 0.998815 0.000000
vn -0.048659 0.998815 0.000000
vn -0.183425 0.983034 0.000000
vn -0.183425 0.983034 0.000000
vn -0.115980 0.993252 0.000000
vn -0.250698 0.968065 0.000000
vn -0.250698 0.968065 0.000000
vn -0.183425 0.983034 0.000000
vn -0.317301 0.948325 0.000000
vn -0.317301 0.948325 0.000000
vn -0.250698 0.968065 0.000000
vn -0.376226 0.926528 0.000000
vn -0.376226 0.926528 0.000000
vn -0.317301 0.948325 0.000000
vn -0.433588 0.901111 0.000000
vn -0.433588 0.901111 0.000000
vn -0.376226 0.926528 0.000000
vn 0.000000 0.000000 1.000000
vn 0.000000 0.000000 1.000000
vn 0.000000 0.000000 1.000000
vn 0.000000 0.000000 1.000000
vn 0.000000 0.000000 1.000000
vn 0.000000 0.000000 1.000000
vn 0.000000 0.000000 1.000000
vn 0.000000 0.000000 1.000000
vn 0.000000 0.000000 1.000000
vn 0.000000 0.000000 1.000000
vn 0.000000 0.000000 1.000000
vn 0.000000 0.000000 1.000000
vn 0.000000 0.000000 1.000000
vn 0.000000 0.000000 1.000000
vn 0.000000 0.000000 1.000000
vn 0.000000 0.000000 1.000000
vn 0.000000 0.000000 1.000000
vn 0.000000 0.000000 1.000000
vn 0.000000 0.000000 1.000000
vn 0.000000 0.000000 1.000000
vn 0.000000 0.000000 1.000000
vn 0.000000 0.000000 1.000000
vn 0.000000 0.000000 1.000000
vn 0.000000 0.000000 1.000000
vn 0.000000 0.000000 1.000000
vn 0.000000 0.000000 1.000000
vn 0.000000 0.000000 1.000000
vn 0.000000 0.000000 1.000000
vn 0.000000 0.000000 1.000000
vn 0.000000 0.000000 1.000000
vn 0.000000 0.000000 1.000000
vn 0.000000 0.000000 1.000000
vn 0.000000 0.000000 1.000000
vn 0.000000 0.000000 1.000000
vn 0.000000 0.000000 1.000000
vn 0.000000 0.000000 1.000000
vn 0.000000 0.000000 1.000000
vn 0.000000 0.000000 1.000000
vn 0.000000 0.000000 1.000000
vn 0.000000 -1.000000 0.000000
vn 0.000000 -1.000000 0.000000
vn 0.000000 -1.000000 0.000000
vn 0.000000 -1.000000 0.000000
vn 0.000000 -1.000000 0.000000
vn 0.000000 -1.000000 0.000000
vn 0.000000 -1.000000 0.000000
vn 0.000000 -1.000000 0.000000
vn 0.000000 -1.000000 0.000000
vn 0.000000 -1.000000 0.000000
vn 0.000000 -1.000000 0.000000
vn 0.000000 -1.000000 0.000000
vn -0.000000 0.000000 -1.000000
vn -0.000000 0.000000 -1.000000
vn -0.000000 0.000000 -1.000000
vn -0.000000 0.000000 -1.000000
vn -0.000000 0.000000 -1.000000
vn -0.000000 0.000000 -1.000000
vn -0.000000 0.000000 -1.000000
vn -0.000000 0.000000 -1.000000
vn -0.000000 0.000000 -1.000000
vn -0.000000 0.000000 -1.000000
vn -0.000000 0.000000 -1.000000
vn -0.000000 0.000000 -1.000000
vn -0.000000 0.000000 -1.000000
vn -0.000000 0.000000 -1.000000
vn -0.000000 0.000000 -1.000000
vn -0.000000 0.000000 -1.000000
vn -0.000000 0.000000 -1.000000
vn -0.000000 0.000000 -1.000000
vn -0.000000 0.000000 -1.000000
vn -0.000000 0.000000 -1.000000
vn -0.000000 0.000000 -1.000000
vn -0.000000 0.000000 -1.000000
vn -0.000000 0.000000 -1.000000
vn -0.000000 0.000000 -1.000000
vn 0.000000 1.000000 0.000000
vn 0.000000 1.000000 0.000000
vn 0.000000 1.000000 0.000000
vn 0.000000 1.000000 0.000000
vn 0.000000 1.000000 0.000000
vn 0.000000 1.000000 0.000000
vn 0.000000 1.000000 0.000000
vn 0.000000 1.000000 0.000000
vn 0.000000 1.000000 0.000000
vn 0.000000 1.000000 0.000000
vn 0.000000 1.000000 0.000000
vn 0.000000 1.000000 0.000000
vn 0.000000 1.000000 0.000000
vn 0.000000 1.000000 0.000000
vn 0.000000 1.000000 0.000000
vn 0.000000 1.000000 0.000000
vn 0.000000 1.000000 0.000000
vn 0.000000 1.000000 0.000000
vn 0.000000 -1.000000 0.000000
vn 0.000000 -1.000000 0.000000
vn 0.000000 -1.000000 0.000000
vn 0.000000 -1.000000 0.000000
vn 0.000000 -1.000000 0.000000
vn 0.000000 -1.000000 0.000000
vn 0.000000 -1.000000 0.000000
vn 0.000000 -1.000000 0.000000
vn 0.000000 -1.000000 0.000000
vn 0.000000 -1.000000 0.000000
vn 0.000000 -1.000000 0.000000
vn 0.000000 -1.000000 0.000000
vn 0.000000 0.000000 1.000000
vn 0.000000 0.000000 1.000000
vn 0.000000 0.000000 1.000000
vn 0.000000 0.000000 1.000000
vn 0.000000 0.000000 1.000000
vn 0.000000 0.000000 1.000000
vn -1.000000 0.000000 0.000000
vn -1.000000 0.000000 0.000000
vn -1.000000 0.000000 0.000000
vn -1.000000 0.000000 0.000000
vn -1.000000 0.000000 0.000000
vn -1.000000 0.000000 0.000000
vn 1.000000 0.000000 -0.000000
vn 1.000000 0.000000 -0.000000
vn 1.000000 0.000000 -0.000000
vn 1.000000 0.000000 -0.000000
vn 1.000000 0.000000 -0.000000
vn 1.000000 0.000000 -0.000000
s off
g Showroom:SouthWall ShowroomGrp
usemtl initialShadingGroup
f 1/9/1 2/10/2 3/11/3
f 3/11/4 4/12/5 1/9/6
f 4/12/7 5/13/8 1/9/9
f 5/13/10 6/14/11 1/9/12
f 7/15/13 8/16/14 1/9/15
f 6/14/16 7/15/17 1/9/18
f 7/15/19 9/17/20 8/16/21
f 9/17/22 10/18/23 8/16/24
f 10/18/25 11/19/26 8/16/27
f 11/19/28 12/20/29 8/16/30
f 13/21/31 14/22/32 8/16/33
f 12/20/34 13/21/35 8/16/36
f 13/21/37 15/23/38 14/22/39
f 16/53/40 8/54/41 17/55/42
f 8/54/43 14/57/44 17/55/45
f 18/56/46 1/59/47 8/54/48
f 19/61/49 2/63/50 1/59/51
f 20/65/52 3/67/53 2/63/54
f 21/69/55 4/71/56 3/67/57
f 5/73/58 4/71/59 21/69/60
f 22/78/61 6/80/62 5/73/63
f 23/82/64 7/84/65 6/80/66
f 24/86/67 9/88/68 7/84/69
f 25/87/70 10/85/71 9/88/72
f 26/83/73 11/81/74 10/85/75
f 27/79/76 12/77/77 11/81/78
f 28/72/79 13/74/80 12/77/81
f 28/72/82 29/66/83 30/70/84
f 30/70/85 13/74/86 28/72/87
f 30/70/88 15/76/89 13/74/90
f 12/77/91 27/79/92 28/72/93
f 11/81/94 26/83/95 27/79/96
f 10/85/97 25/87/98 26/83/99
f 9/88/100 24/86/101 25/87/102
f 7/84/103 23/82/104 24/86/105
f 6/80/106 22/78/107 23/82/108
f 5/73/109 31/75/110 22/78/111
f 21/69/112 31/75/113 5/73/114
f 3/67/115 20/65/116 21/69/117
f 2/63/118 19/61/119 20/65/120
f 1/59/121 18/56/122 19/61/123
f 8/54/124 16/53/125 18/56/126
f 17/55/127 32/58/128 16/53/129
f 18/24/130 21/25/131 20/26/132
f 18/24/133 31/27/134 21/25/135
f 18/24/136 22/29/137 31/27/138
f 18/24/139 23/30/140 22/29/141
f 20/26/142 19/28/143 18/24/144
f 16/31/145 24/32/146 23/30/147
f 16/31/148 25/33/149 24/32/150
f 16/31/151 26/34/152 25/33/153
f 16/31/154 27/35/155 26/34/156
f 16/31/157 28/36/158 27/35/159
f 18/24/160 16/31/161 23/30/162
f 32/37/163 29/38/164 28/36/165
f 16/31/166 32/37/167 28/36/168
f 14/89/169 15/90/170 33/91/171
f 33/91/172 34/93/173 14/89/174
f 15/90/175 30/92/176 33/91/177
f 34/93/178 17/94/179 14/89/180
f 33/39/181 35/40/182 36/41/183
f 36/41/184 34/43/185 33/39/186
f 35/40/187 33/39/188 30/42/189
f 30/42/190 37/44/191 35/40/192
f 30/42/193 38/46/194 37/44/195
f 39/47/196 40/48/197 17/45/198
f 17/45/199 36/41/200 39/47/201
f 17/45/202 34/43/203 36/41/204
f 40/60/205 41/62/206 32/58/207
f 42/64/208 29/66/209 32/58/210
f 32/58/211 41/62/212 42/64/213
f 38/68/214 30/70/215 29/66/216
f 29/66/217 42/64/218 38/68/219
f 32/58/220 17/55/221 40/60/222
f 43/95/223 36/96/224 35/97/225
f 35/97/226 44/99/227 43/95/228
f 43/95/229 39/98/230 36/96/231
f 35/97/232 37/100/233 44/99/234
f 42/49/235 41/50/236 43/51/237
f 43/51/238 44/52/239 42/49/240
f 41/1/241 40/2/242 39/3/243
f 39/3/244 43/4/245 41/1/246
f 44/5/247 37/6/248 38/7/249
f 38/7/250 42/8/251 44/5/252
