# This file uses centimeters as units for non-parametric coordinates.

mtllib ShowRoomEastWall.mtl
g default
v 299.720001 487.680005 -538.479995
v 299.720001 -0.000001 -538.479995
v 299.720001 -0.000001 -528.319978
v 299.720001 487.680005 -528.319978
v 309.879994 -0.000001 -538.479995
v 309.879994 487.680005 -538.479995
v 309.879994 -0.000001 528.319979
v 299.720001 -0.000001 528.319979
v 309.879994 487.680005 528.319979
v 299.720001 487.680005 528.319979
vt 0.457290 0.998005
vt 0.001970 0.998005
vt 0.001970 0.988518
vt 0.457290 0.988518
vt 0.001970 0.001995
vt 0.457290 0.001995
vt 0.953722 0.998005
vt 0.498402 0.998005
vt 0.498402 0.001995
vt 0.953722 0.001995
vt 0.970012 0.457318
vt 0.960526 0.457318
vt 0.960526 0.001998
vt 0.970012 0.001998
vt 0.987048 0.457312
vt 0.977561 0.457312
vt 0.977561 0.001992
vt 0.987048 0.001992
vt 0.473803 0.998008
vt 0.464316 0.998008
vt 0.464316 0.011473
vt 0.473803 0.001998
vt 0.464316 0.001998
vt 0.490842 0.001995
vt 0.490842 0.998005
vt 0.481355 0.988518
vt 0.481355 0.998005
vt 0.481355 0.001995
vn -1.000000 0.000000 0.000000
vn -1.000000 0.000000 0.000000
vn -1.000000 0.000000 0.000000
vn -1.000000 0.000000 0.000000
vn -1.000000 0.000000 0.000000
vn -1.000000 0.000000 0.000000
vn -0.000000 0.000000 -1.000000
vn -0.000000 0.000000 -1.000000
vn -0.000000 0.000000 -1.000000
vn -0.000000 0.000000 -1.000000
vn -0.000000 0.000000 -1.000000
vn -0.000000 0.000000 -1.000000
vn 0.000000 -1.000000 0.000000
vn 0.000000 -1.000000 0.000000
vn 0.000000 -1.000000 0.000000
vn 0.000000 -1.000000 0.000000
vn 0.000000 -1.000000 0.000000
vn 0.000000 -1.000000 0.000000
vn 0.000000 -1.000000 0.000000
vn 0.000000 -1.000000 0.000000
vn 0.000000 -1.000000 0.000000
vn 0.000000 1.000000 0.000000
vn 0.000000 1.000000 0.000000
vn 0.000000 1.000000 0.000000
vn 0.000000 1.000000 0.000000
vn 0.000000 1.000000 0.000000
vn 0.000000 1.000000 0.000000
vn 0.000000 1.000000 0.000000
vn 0.000000 1.000000 0.000000
vn 0.000000 1.000000 0.000000
vn -1.000000 0.000000 0.000000
vn -1.000000 0.000000 0.000000
vn -1.000000 0.000000 0.000000
vn -1.000000 0.000000 0.000000
vn -1.000000 0.000000 0.000000
vn -1.000000 0.000000 0.000000
vn 0.000000 0.000000 1.000000
vn 0.000000 0.000000 1.000000
vn 0.000000 0.000000 1.000000
vn 0.000000 0.000000 1.000000
vn 0.000000 0.000000 1.000000
vn 0.000000 0.000000 1.000000
vn 1.000000 0.000000 -0.000000
vn 1.000000 0.000000 -0.000000
vn 1.000000 0.000000 -0.000000
vn 1.000000 0.000000 -0.000000
vn 1.000000 0.000000 -0.000000
vn 1.000000 0.000000 -0.000000
s off
g Showroom:EastWall ShowroomGrp
usemtl initialShadingGroup
f 1/1/1 2/2/2 3/3/3
f 3/3/4 4/4/5 1/1/6
f 5/11/7 2/12/8 1/13/9
f 1/13/10 6/14/11 5/11/12
f 7/19/13 8/20/14 3/21/15
f 3/21/16 5/22/17 7/19/18
f 3/21/19 2/23/20 5/22/21
f 9/24/22 6/25/23 4/26/24
f 6/25/25 1/27/26 4/26/27
f 4/26/28 10/28/29 9/24/30
f 4/4/31 3/3/32 8/5/33
f 8/5/34 10/6/35 4/4/36
f 9/15/37 10/16/38 8/17/39
f 8/17/40 7/18/41 9/15/42
f 5/7/43 6/8/44 9/9/45
f 9/9/46 7/10/47 5/7/48
