# This file uses centimeters as units for non-parametric coordinates.

mtllib ShowroomWestWall.mtl
g default
v -307.340002 -0.000001 478.789998
v -307.340002 441.960000 478.789998
v -302.259994 441.960000 478.789998
v -302.259994 -0.000001 478.789998
v -307.340002 441.960000 -469.899987
v -302.259994 441.960000 -469.899987
v -307.340002 -0.000001 -469.899987
v -302.259994 -0.000001 -469.899987
v -307.340002 426.719999 -457.200002
v -307.340002 426.719999 457.200003
v -307.340002 -0.000001 457.200003
v -307.340002 -0.000001 -457.200002
v -309.879994 426.719999 -457.200002
v -309.879994 426.719999 457.200003
v -309.879994 -0.000001 -457.200002
v -309.879994 -0.000001 457.200003
v -302.259994 426.719999 457.200003
v -302.259994 426.719999 -457.200002
v -302.259994 -0.000001 -457.200002
v -302.259994 -0.000001 457.200003
v -299.720001 426.719999 -457.200002
v -299.720001 -0.000001 -457.200002
v -299.720001 426.719999 457.200003
v -299.720001 -0.000001 457.200003
v -299.720001 -0.000001 528.319979
v -309.879994 -0.000001 528.319979
v -299.720001 487.680005 528.319979
v -309.879994 487.680005 528.319979
v -299.720001 -0.000001 -528.319978
v -299.720001 487.680005 -528.319978
v -309.879994 -0.000001 -538.479995
v -299.720001 -0.000001 -538.479995
v -309.879994 487.680005 -538.479995
v -299.720001 487.680005 -538.479995
vt 0.000000 -3.073400
vt 4.419600 -3.073400
vt 4.419600 -3.022600
vt 0.000000 -3.022600
vt 3.073400 -4.787900
vt 3.073400 4.699000
vt 3.022600 4.699000
vt 3.022600 -4.787900
vt -4.419600 -3.073400
vt 0.000000 -3.073400
vt 0.000000 -3.022600
vt -4.419600 -3.022600
vt 0.000000 -2.133600
vt -0.000000 2.286000
vt -0.127000 2.133600
vt -9.486900 2.286000
vt -9.271000 2.133600
vt -9.486900 -2.133600
vt -9.271000 -2.133600
vt -0.127000 -2.133600
vt -4.572000 2.641600
vt -4.572000 2.667000
vt 4.572000 2.667000
vt 4.572000 2.641600
vt -2.641600 2.133600
vt -2.641600 -2.133600
vt -2.667000 -2.133600
vt -2.667000 2.133600
vt 2.667000 -2.133600
vt 2.641600 -2.133600
vt 2.641600 2.133600
vt 2.667000 2.133600
vt -9.486900 -2.120900
vt -9.486900 2.298700
vt -9.271000 2.146300
vt -0.000000 2.298700
vt -0.127000 2.146300
vt 0.000000 -2.120900
vt -0.127000 -2.120900
vt -9.271000 -2.120900
vt -2.743200 2.133600
vt -2.717800 2.133600
vt -2.717800 -2.133600
vt -2.743200 -2.133600
vt 4.572000 2.717800
vt -4.572000 2.717800
vt -4.572000 2.743200
vt 4.572000 2.743200
vt 2.717800 -2.133600
vt 2.717800 2.133600
vt 2.743200 2.133600
vt 2.743200 -2.133600
vt -2.997200 -5.283200
vt -3.098800 -5.283200
vt -3.073400 -4.787900
vt -3.098800 -4.572000
vt -3.073400 -4.572000
vt -2.997200 -4.572000
vt -3.022600 -4.787900
vt -3.022600 -4.572000
vt 3.098800 -2.438400
vt 2.997200 -2.438400
vt 2.997200 2.438400
vt 3.098800 2.438400
vt 5.283200 -4.876800
vt 5.283200 0.000000
vt 4.572000 -0.609600
vt -5.283200 0.000000
vt -4.572000 -0.609600
vt -5.283200 -4.876800
vt -4.572000 -4.876800
vt 4.572000 -4.876800
vt -3.073400 4.699000
vt -3.098800 5.384800
vt -2.997200 5.283200
vt -2.997200 5.384800
vt -2.997200 4.572000
vt -3.022600 4.572000
vt -3.022600 4.699000
vt -3.098800 4.572000
vt -3.073400 4.572000
vt -5.283200 0.152400
vt -5.283200 5.029200
vt -4.572000 4.419600
vt 5.384800 5.029200
vt 4.572000 4.419600
vt 5.384800 0.152400
vt 4.572000 0.152400
vt -4.572000 0.152400
vt -3.098800 -5.283200
vt -2.997200 -5.283200
vt -2.997200 5.283200
vt -3.098800 5.384800
vt -2.997200 5.384800
vt 5.384800 2.438400
vt 5.283200 2.438400
vt 5.283200 -2.438400
vt 5.384800 -2.438400
vt -3.098800 5.029200
vt -2.997200 5.029200
vt -2.997200 0.152400
vt -3.098800 0.152400
vn 0.000000 0.000000 -1.000000
vn 0.000000 0.000000 -1.000000
vn 0.000000 0.000000 -1.000000
vn -0.000000 0.000000 -1.000000
vn -0.000000 0.000000 -1.000000
vn -0.000000 0.000000 -1.000000
vn -0.000000 -1.000000 -0.000000
vn -0.000000 -1.000000 -0.000000
vn -0.000000 -1.000000 -0.000000
vn -0.000000 -1.000000 -0.000000
vn -0.000000 -1.000000 -0.000000
vn -0.000000 -1.000000 -0.000000
vn 0.000000 -0.000000 1.000000
vn 0.000000 -0.000000 1.000000
vn 0.000000 -0.000000 1.000000
vn 0.000000 -0.000000 1.000000
vn 0.000000 -0.000000 1.000000
vn 0.000000 -0.000000 1.000000
vn 1.000000 0.000000 -0.000000
vn 1.000000 0.000000 -0.000000
vn 1.000000 0.000000 -0.000000
vn 1.000000 0.000000 -0.000000
vn 1.000000 0.000000 -0.000000
vn 1.000000 0.000000 -0.000000
vn 1.000000 0.000000 -0.000000
vn 1.000000 0.000000 -0.000000
vn 1.000000 0.000000 -0.000000
vn 1.000000 0.000000 -0.000000
vn 1.000000 0.000000 -0.000000
vn 1.000000 0.000000 -0.000000
vn 1.000000 0.000000 -0.000000
vn 1.000000 0.000000 -0.000000
vn 1.000000 0.000000 -0.000000
vn 1.000000 0.000000 -0.000000
vn 1.000000 0.000000 -0.000000
vn 1.000000 0.000000 -0.000000
vn -0.000000 -1.000000 -0.000000
vn -0.000000 -1.000000 -0.000000
vn -0.000000 -1.000000 -0.000000
vn -0.000000 -1.000000 -0.000000
vn -0.000000 -1.000000 -0.000000
vn -0.000000 -1.000000 -0.000000
vn 0.000000 -0.000000 1.000000
vn 0.000000 -0.000000 1.000000
vn 0.000000 -0.000000 1.000000
vn 0.000000 -0.000000 1.000000
vn 0.000000 -0.000000 1.000000
vn 0.000000 -0.000000 1.000000
vn -0.000000 0.000000 -1.000000
vn -0.000000 0.000000 -1.000000
vn -0.000000 0.000000 -1.000000
vn -0.000000 0.000000 -1.000000
vn -0.000000 0.000000 -1.000000
vn -0.000000 0.000000 -1.000000
vn -1.000000 -0.000000 0.000000
vn -1.000000 -0.000000 0.000000
vn -1.000000 -0.000000 0.000000
vn -1.000000 -0.000000 0.000000
vn -1.000000 -0.000000 0.000000
vn -1.000000 -0.000000 0.000000
vn -1.000000 -0.000000 0.000000
vn -1.000000 -0.000000 0.000000
vn -1.000000 -0.000000 0.000000
vn -1.000000 -0.000000 0.000000
vn -1.000000 -0.000000 0.000000
vn -1.000000 -0.000000 0.000000
vn -1.000000 -0.000000 0.000000
vn -1.000000 -0.000000 0.000000
vn -1.000000 -0.000000 0.000000
vn -1.000000 -0.000000 0.000000
vn -1.000000 -0.000000 0.000000
vn -1.000000 -0.000000 0.000000
vn 0.000000 -0.000000 1.000000
vn 0.000000 -0.000000 1.000000
vn 0.000000 -0.000000 1.000000
vn 0.000000 -0.000000 1.000000
vn 0.000000 -0.000000 1.000000
vn 0.000000 -0.000000 1.000000
vn -0.000000 -1.000000 -0.000000
vn -0.000000 -1.000000 -0.000000
vn -0.000000 -1.000000 -0.000000
vn -0.000000 -1.000000 -0.000000
vn -0.000000 -1.000000 -0.000000
vn -0.000000 -1.000000 -0.000000
vn -0.000000 0.000000 -1.000000
vn -0.000000 0.000000 -1.000000
vn -0.000000 0.000000 -1.000000
vn -0.000000 0.000000 -1.000000
vn -0.000000 0.000000 -1.000000
vn -0.000000 0.000000 -1.000000
vn -0.000000 -1.000000 -0.000000
vn -0.000000 -1.000000 -0.000000
vn -0.000000 -1.000000 -0.000000
vn -0.000000 -1.000000 -0.000000
vn -0.000000 -1.000000 -0.000000
vn -0.000000 -1.000000 -0.000000
vn -0.000000 -1.000000 -0.000000
vn -0.000000 -1.000000 -0.000000
vn -0.000000 -1.000000 -0.000000
vn -0.000000 -1.000000 -0.000000
vn -0.000000 -1.000000 -0.000000
vn -0.000000 -1.000000 -0.000000
vn -0.000000 -1.000000 -0.000000
vn -0.000000 -1.000000 -0.000000
vn -0.000000 -1.000000 -0.000000
vn -0.000000 -1.000000 -0.000000
vn -0.000000 -1.000000 -0.000000
vn -0.000000 -1.000000 -0.000000
vn 0.000000 0.000000 1.000000
vn 0.000000 0.000000 1.000000
vn 0.000000 0.000000 1.000000
vn 0.000000 0.000000 1.000000
vn 0.000000 0.000000 1.000000
vn 0.000000 0.000000 1.000000
vn 1.000000 0.000000 -0.000000
vn 1.000000 0.000000 -0.000000
vn 1.000000 0.000000 -0.000000
vn 1.000000 0.000000 -0.000000
vn 1.000000 0.000000 -0.000000
vn 1.000000 0.000000 -0.000000
vn 1.000000 0.000000 -0.000000
vn 1.000000 0.000000 -0.000000
vn 1.000000 0.000000 -0.000000
vn 1.000000 0.000000 -0.000000
vn 1.000000 0.000000 -0.000000
vn 1.000000 0.000000 -0.000000
vn 1.000000 0.000000 -0.000000
vn 1.000000 0.000000 -0.000000
vn 1.000000 0.000000 -0.000000
vn 1.000000 0.000000 -0.000000
vn 1.000000 0.000000 -0.000000
vn 1.000000 0.000000 -0.000000
vn 0.000000 -1.000000 0.000000
vn 0.000000 -1.000000 0.000000
vn 0.000000 -1.000000 0.000000
vn 0.000000 -1.000000 0.000000
vn 0.000000 -1.000000 0.000000
vn 0.000000 -1.000000 0.000000
vn 0.000000 -1.000000 0.000000
vn 0.000000 -1.000000 0.000000
vn 0.000000 -1.000000 0.000000
vn 0.000000 -1.000000 0.000000
vn 0.000000 -1.000000 0.000000
vn 0.000000 -1.000000 0.000000
vn 0.000000 -1.000000 0.000000
vn 0.000000 -1.000000 0.000000
vn 0.000000 -1.000000 0.000000
vn 0.000000 -1.000000 0.000000
vn 0.000000 -1.000000 0.000000
vn 0.000000 -1.000000 0.000000
vn 0.000000 -1.000000 0.000000
vn 0.000000 -1.000000 0.000000
vn 0.000000 -1.000000 0.000000
vn -1.000000 0.000000 0.000000
vn -1.000000 0.000000 0.000000
vn -1.000000 0.000000 0.000000
vn -1.000000 0.000000 0.000000
vn -1.000000 0.000000 0.000000
vn -1.000000 0.000000 0.000000
vn -1.000000 0.000000 0.000000
vn -1.000000 0.000000 0.000000
vn -1.000000 0.000000 0.000000
vn -1.000000 0.000000 0.000000
vn -1.000000 0.000000 0.000000
vn -1.000000 0.000000 0.000000
vn -1.000000 0.000000 0.000000
vn -1.000000 0.000000 0.000000
vn -1.000000 0.000000 0.000000
vn -1.000000 0.000000 0.000000
vn -1.000000 0.000000 0.000000
vn -1.000000 0.000000 0.000000
vn 0.000000 1.000000 0.000000
vn 0.000000 1.000000 0.000000
vn 0.000000 1.000000 0.000000
vn 0.000000 1.000000 0.000000
vn 0.000000 1.000000 0.000000
vn 0.000000 1.000000 0.000000
vn 0.000000 1.000000 0.000000
vn 0.000000 1.000000 0.000000
vn 0.000000 1.000000 0.000000
vn 1.000000 0.000000 -0.000000
vn 1.000000 0.000000 -0.000000
vn 1.000000 0.000000 -0.000000
vn 1.000000 0.000000 -0.000000
vn 1.000000 0.000000 -0.000000
vn 1.000000 0.000000 -0.000000
vn -0.000000 0.000000 -1.000000
vn -0.000000 0.000000 -1.000000
vn -0.000000 0.000000 -1.000000
vn -0.000000 0.000000 -1.000000
vn -0.000000 0.000000 -1.000000
vn -0.000000 0.000000 -1.000000
s off
g Showroom:WestWall ShowroomGrp
usemtl initialShadingGroup
f 1/1/1 2/2/2 3/3/3
f 3/3/4 4/4/5 1/1/6
f 2/5/7 5/6/8 6/7/9
f 6/7/10 3/8/11 2/5/12
f 5/9/13 7/10/14 8/11/15
f 8/11/16 6/12/17 5/9/18
f 7/13/19 5/14/20 9/15/21
f 5/14/22 2/16/23 10/17/24
f 10/17/25 9/15/26 5/14/27
f 1/18/28 11/19/29 10/17/30
f 10/17/31 2/16/32 1/18/33
f 9/15/34 12/20/35 7/13/36
f 13/21/37 9/22/38 10/23/39
f 10/23/40 14/24/41 13/21/42
f 13/25/43 15/26/44 12/27/45
f 12/27/46 9/28/47 13/25/48
f 11/29/49 16/30/50 14/31/51
f 14/31/52 10/32/53 11/29/54
f 4/33/55 3/34/56 17/35/57
f 6/36/58 18/37/59 17/35/60
f 17/35/61 3/34/62 6/36/63
f 8/38/64 19/39/65 18/37/66
f 18/37/67 6/36/68 8/38/69
f 17/35/70 20/40/71 4/33/72
f 21/41/73 18/42/74 19/43/75
f 19/43/76 22/44/77 21/41/78
f 17/45/79 18/46/80 21/47/81
f 21/47/82 23/48/83 17/45/84
f 20/49/85 17/50/86 23/51/87
f 23/51/88 24/52/89 20/49/90
f 25/53/91 26/54/92 1/55/93
f 16/56/94 11/57/95 1/55/96
f 24/58/97 25/53/98 4/59/99
f 1/55/100 26/54/101 16/56/102
f 1/55/103 4/59/104 25/53/105
f 4/59/106 20/60/107 24/58/108
f 26/61/109 25/62/110 27/63/111
f 27/63/112 28/64/113 26/61/114
f 29/65/115 30/66/116 21/67/117
f 27/68/118 23/69/119 21/67/120
f 21/67/121 30/66/122 27/68/123
f 25/70/124 24/71/125 23/69/126
f 23/69/127 27/68/128 25/70/129
f 21/67/130 22/72/131 29/65/132
f 7/73/133 31/74/134 29/75/135
f 31/74/136 32/76/137 29/75/138
f 22/77/139 19/78/140 8/79/141
f 15/80/142 31/74/143 7/73/144
f 8/79/145 29/75/146 22/77/147
f 29/75/148 8/79/149 7/73/150
f 7/73/151 12/81/152 15/80/153
f 26/82/154 28/83/155 14/84/156
f 28/83/157 33/85/158 13/86/159
f 13/86/160 14/84/161 28/83/162
f 31/87/163 15/88/164 13/86/165
f 13/86/166 33/85/167 31/87/168
f 14/84/169 16/89/170 26/82/171
f 28/90/172 27/91/173 30/92/174
f 30/92/175 33/93/176 28/90/177
f 30/92/178 34/94/179 33/93/180
f 34/95/181 30/96/182 29/97/183
f 29/97/184 32/98/185 34/95/186
f 33/99/187 34/100/188 32/101/189
f 32/101/190 31/102/191 33/99/192
